<svg xmlns="http://www.w3.org/2000/svg" xmlns:xlink="http://www.w3.org/1999/xlink" version="1.1" data-diagram-type="DESCRIPTION" style="width:548px;height:576px;background:#FFFFFF;" width="548px" height="576px" viewBox="0 0 548 576" zoomAndPan="magnify" preserveAspectRatio="none" contentStyleType="text/css"><?plantuml 1.2026.8?><defs/><g font-family="sans-serif" lengthAdjust="spacing"><polygon points="12,22,22,12,514.099,12,514.099,542.188,504.099,552.188,12,552.188,12,22" fill="none" style="stroke:#181818;stroke-width:1;stroke-linejoin:miter;stroke-miterlimit:10;"/><line x1="504.099" y1="22" x2="514.099" y2="12" style="stroke:#181818;stroke-width:1;"/><line x1="12" y1="22" x2="504.099" y2="22" style="stroke:#181818;stroke-width:1;"/><line x1="504.099" y1="22" x2="504.099" y2="552.188" style="stroke:#181818;stroke-width:1;"/><text x="230.205" y="37.995" fill="#000" font-size="14" textLength="57.688" font-weight="700">Vehicle</text><rect x="27" y="183.297" width="427.306" height="91.297" fill="none" style="stroke:#181818;stroke-width:1;" rx="2.5" ry="2.5"/><rect x="434.306" y="188.297" width="15" height="10" fill="none" style="stroke:#181818;stroke-width:1;"/><rect x="432.306" y="190.297" width="4" height="2" fill="none" style="stroke:#181818;stroke-width:1;"/><rect x="432.306" y="194.297" width="4" height="2" fill="none" style="stroke:#181818;stroke-width:1;"/><text x="137.205" y="209.292" fill="#000" font-size="14" textLength="206.896" font-weight="700">EmergencyBrakingSystem</text><rect x="329.508" y="445.891" width="136.481" height="91.297" fill="none" style="stroke:#181818;stroke-width:1;" rx="2.5" ry="2.5"/><rect x="445.989" y="450.891" width="15" height="10" fill="none" style="stroke:#181818;stroke-width:1;"/><rect x="443.989" y="452.891" width="4" height="2" fill="none" style="stroke:#181818;stroke-width:1;"/><rect x="443.989" y="456.891" width="4" height="2" fill="none" style="stroke:#181818;stroke-width:1;"/><text x="340.607" y="471.886" fill="#000" font-size="14" textLength="114.283" font-weight="700">BrakeActuator</text><rect x="296.398" y="314.594" width="202.701" height="91.297" fill="none" style="stroke:#181818;stroke-width:1;" rx="2.5" ry="2.5"/><rect x="479.099" y="319.594" width="15" height="10" fill="none" style="stroke:#181818;stroke-width:1;"/><rect x="477.099" y="321.594" width="4" height="2" fill="none" style="stroke:#181818;stroke-width:1;"/><rect x="477.099" y="325.594" width="4" height="2" fill="none" style="stroke:#181818;stroke-width:1;"/><text x="335.685" y="340.589" fill="#000" font-size="14" textLength="124.127" font-weight="700">ForceCalculator</text><rect x="62.472" y="314.594" width="213.926" height="91.297" fill="none" style="stroke:#181818;stroke-width:1;" rx="2.5" ry="2.5"/><rect x="256.398" y="319.594" width="15" height="10" fill="none" style="stroke:#181818;stroke-width:1;"/><rect x="254.398" y="321.594" width="4" height="2" fill="none" style="stroke:#181818;stroke-width:1;"/><rect x="254.398" y="325.594" width="4" height="2" fill="none" style="stroke:#181818;stroke-width:1;"/><text x="108.746" y="340.589" fill="#000" font-size="14" textLength="121.379" font-weight="700">ResponseTimer</text><rect x="133.109" y="52" width="215.088" height="91.297" fill="none" style="stroke:#181818;stroke-width:1;" rx="2.5" ry="2.5"/><rect x="328.197" y="57" width="15" height="10" fill="none" style="stroke:#181818;stroke-width:1;"/><rect x="326.197" y="59" width="4" height="2" fill="none" style="stroke:#181818;stroke-width:1;"/><rect x="326.197" y="63" width="4" height="2" fill="none" style="stroke:#181818;stroke-width:1;"/><text x="159.606" y="77.995" fill="#000" font-size="14" textLength="162.094" font-weight="700">PedestrianDetection</text><!--entity calculateBrakingForce--><g class="entity" data-qualified-name="Vehicle.EmergencyBrakingSystem.calculateBrakingForce" id="ent0003" data-source-line="3"><rect x="42" y="223.297" width="175.688" height="36.297" fill="#F1F1F1" style="stroke:#181818;stroke-width:0.5;" rx="2.5" ry="2.5"/><text x="52" y="246.292" fill="#000" font-size="14" textLength="155.688">calculateBrakingForce</text></g><!--entity initiateEmergencyBraking--><g class="entity" data-qualified-name="Vehicle.EmergencyBrakingSystem.initiateEmergencyBraking" id="ent0004" data-source-line="4"><rect x="237.688" y="223.297" width="201.617" height="36.297" fill="#F1F1F1" style="stroke:#181818;stroke-width:0.5;" rx="2.5" ry="2.5"/><text x="247.688" y="246.292" fill="#000" font-size="14" textLength="181.617">initiateEmergencyBraking</text></g><!--entity applyBrakes--><g class="entity" data-qualified-name="Vehicle.BrakeActuator.applyBrakes" id="ent0006" data-source-line="7"><rect x="344.508" y="485.891" width="106.481" height="36.297" fill="#F1F1F1" style="stroke:#181818;stroke-width:0.5;" rx="2.5" ry="2.5"/><text x="354.508" y="508.886" fill="#000" font-size="14" textLength="86.481">applyBrakes</text></g><!--entity optimizeBrakingForce--><g class="entity" data-qualified-name="Vehicle.ForceCalculator.optimizeBrakingForce" id="ent0008" data-source-line="10"><rect x="311.398" y="354.594" width="172.701" height="36.297" fill="#F1F1F1" style="stroke:#181818;stroke-width:0.5;" rx="2.5" ry="2.5"/><text x="321.398" y="377.589" fill="#000" font-size="14" textLength="152.701">optimizeBrakingForce</text></g><!--entity measureResponseTime--><g class="entity" data-qualified-name="Vehicle.ResponseTimer.measureResponseTime" id="ent0010" data-source-line="13"><rect x="77.472" y="354.594" width="183.926" height="36.297" fill="#F1F1F1" style="stroke:#181818;stroke-width:0.5;" rx="2.5" ry="2.5"/><text x="87.472" y="377.589" fill="#000" font-size="14" textLength="163.926">measureResponseTime</text></g><!--entity detectPedestrianThreat--><g class="entity" data-qualified-name="Vehicle.PedestrianDetection.detectPedestrianThreat" id="ent0012" data-source-line="16"><rect x="148.109" y="92" width="185.088" height="36.297" fill="#F1F1F1" style="stroke:#181818;stroke-width:0.5;" rx="2.5" ry="2.5"/><text x="158.109" y="114.995" fill="#000" font-size="14" textLength="165.088">detectPedestrianThreat</text></g><line x1="240.653" y1="143.297" x2="240.653" y2="183.297" style="stroke:#181818;stroke-width:1;"/><polygon points="240.653,183.297,244.653,174.297,240.653,178.297,236.653,174.297,240.653,183.297" fill="#181818" style="stroke:#181818;stroke-width:1;stroke-linejoin:miter;stroke-miterlimit:10;"/><line x1="311.87" y1="274.594" x2="311.87" y2="284.594" style="stroke:#181818;stroke-width:1;"/><line x1="311.87" y1="284.594" x2="397.749" y2="284.594" style="stroke:#181818;stroke-width:1;"/><line x1="397.749" y1="284.594" x2="397.749" y2="314.594" style="stroke:#181818;stroke-width:1;"/><polygon points="397.749,314.594,401.749,305.594,397.749,309.594,393.749,305.594,397.749,314.594" fill="#181818" style="stroke:#181818;stroke-width:1;stroke-linejoin:miter;stroke-miterlimit:10;"/><line x1="397.749" y1="405.891" x2="397.749" y2="445.891" style="stroke:#181818;stroke-width:1;"/><polygon points="397.749,445.891,401.749,436.891,397.749,440.891,393.749,436.891,397.749,445.891" fill="#181818" style="stroke:#181818;stroke-width:1;stroke-linejoin:miter;stroke-miterlimit:10;"/><line x1="169.435" y1="274.594" x2="169.435" y2="314.594" style="stroke:#181818;stroke-width:1;"/><polygon points="169.435,314.594,173.435,305.594,169.435,309.594,165.435,305.594,169.435,314.594" fill="#181818" style="stroke:#181818;stroke-width:1;stroke-linejoin:miter;stroke-miterlimit:10;"/></g></svg>