<svg xmlns="http://www.w3.org/2000/svg" xmlns:xlink="http://www.w3.org/1999/xlink" version="1.1" data-diagram-type="SEQUENCE" style="width:477px;height:276px;background:#FFFFFF;" width="477px" height="276px" viewBox="0 0 477 276" zoomAndPan="magnify" preserveAspectRatio="none" contentStyleType="text/css"><?plantuml 1.2026.8?><defs/><g font-family="sans-serif" lengthAdjust="spacing"><g><title>User interface</title><rect x="62.9" y="41.297" width="8" height="192.797" fill="#000" fill-opacity="0"/><line x1="66.4" y1="41.297" x2="66.4" y2="234.094" style="stroke:#181818;stroke-width:0.5;stroke-dasharray:5,5;"/></g><g><title>Hardware abstraction layer</title><rect x="231.935" y="41.297" width="8" height="192.797" fill="#000" fill-opacity="0"/><line x1="235.435" y1="41.297" x2="235.435" y2="234.094" style="stroke:#181818;stroke-width:0.5;stroke-dasharray:5,5;"/></g><g><title>Safety monitor</title><rect x="403.574" y="41.297" width="8" height="192.797" fill="#000" fill-opacity="0"/><line x1="407.074" y1="41.297" x2="407.074" y2="234.094" style="stroke:#181818;stroke-width:0.5;stroke-dasharray:5,5;"/></g><a target="_top" href="diagrams.html#entity-COMP_UI" xlink:href="diagrams.html#entity-COMP_UI" xlink:type="simple" xlink:actuate="onRequest" xlink:show="new" title="diagrams.html#entity-COMP_UI" xlink:title="diagrams.html#entity-COMP_UI"><rect x="10" y="10" width="112.8" height="30.297" fill="#E2E2F0" style="stroke:#181818;stroke-width:0.5;" rx="2.5" ry="2.5"/><text x="17" y="29.995" fill="#000" font-size="14" textLength="98.8">User interface</text></a><a target="_top" href="diagrams.html#entity-COMP_HAL" xlink:href="diagrams.html#entity-COMP_HAL" xlink:type="simple" xlink:actuate="onRequest" xlink:show="new" title="diagrams.html#entity-COMP_HAL" xlink:title="diagrams.html#entity-COMP_HAL"><rect x="132.8" y="10" width="205.27" height="30.297" fill="#E2E2F0" style="stroke:#181818;stroke-width:0.5;" rx="2.5" ry="2.5"/><text x="139.8" y="29.995" fill="#000" font-size="14" textLength="191.27">Hardware abstraction layer</text></a><a target="_top" href="diagrams.html#entity-COMP_SAFETY" xlink:href="diagrams.html#entity-COMP_SAFETY" xlink:type="simple" xlink:actuate="onRequest" xlink:show="new" title="diagrams.html#entity-COMP_SAFETY" xlink:title="diagrams.html#entity-COMP_SAFETY"><rect x="348.069" y="10" width="118.009" height="30.297" fill="#E2E2F0" style="stroke:#181818;stroke-width:0.5;" rx="2.5" ry="2.5"/><text x="355.069" y="29.995" fill="#000" font-size="14" textLength="104.009">Safety monitor</text></a><a target="_top" href="diagrams.html#entity-COMP_UI" xlink:href="diagrams.html#entity-COMP_UI" xlink:type="simple" xlink:actuate="onRequest" xlink:show="new" title="diagrams.html#entity-COMP_UI" xlink:title="diagrams.html#entity-COMP_UI"><rect x="10" y="234.094" width="112.8" height="30.297" fill="#E2E2F0" style="stroke:#181818;stroke-width:0.5;" rx="2.5" ry="2.5"/><text x="17" y="254.089" fill="#000" font-size="14" textLength="98.8">User interface</text></a><a target="_top" href="diagrams.html#entity-COMP_HAL" xlink:href="diagrams.html#entity-COMP_HAL" xlink:type="simple" xlink:actuate="onRequest" xlink:show="new" title="diagrams.html#entity-COMP_HAL" xlink:title="diagrams.html#entity-COMP_HAL"><rect x="132.8" y="234.094" width="205.27" height="30.297" fill="#E2E2F0" style="stroke:#181818;stroke-width:0.5;" rx="2.5" ry="2.5"/><text x="139.8" y="254.089" fill="#000" font-size="14" textLength="191.27">Hardware abstraction layer</text></a><a target="_top" href="diagrams.html#entity-COMP_SAFETY" xlink:href="diagrams.html#entity-COMP_SAFETY" xlink:type="simple" xlink:actuate="onRequest" xlink:show="new" title="diagrams.html#entity-COMP_SAFETY" xlink:title="diagrams.html#entity-COMP_SAFETY"><rect x="348.069" y="234.094" width="118.009" height="30.297" fill="#E2E2F0" style="stroke:#181818;stroke-width:0.5;" rx="2.5" ry="2.5"/><text x="355.069" y="254.089" fill="#000" font-size="14" textLength="104.009">Safety monitor</text></a><polygon points="223.435,66.43,233.435,70.43,223.435,74.43,227.435,70.43" fill="#181818" style="stroke:#181818;stroke-width:1;stroke-linejoin:miter;stroke-miterlimit:10;"/><line x1="66.4" y1="70.43" x2="229.435" y2="70.43" style="stroke:#181818;stroke-width:1;"/><text x="73.4" y="65.364" fill="#000" font-size="13" textLength="30.704">init()</text><polygon points="77.4,95.563,67.4,99.563,77.4,103.563,73.4,99.563" fill="#181818" style="stroke:#181818;stroke-width:1;stroke-linejoin:miter;stroke-miterlimit:10;"/><line x1="71.4" y1="99.563" x2="234.435" y2="99.563" style="stroke:#181818;stroke-width:1;"/><text x="83.4" y="94.497" fill="#000" font-size="13" textLength="42.542">init_ok</text><polygon points="395.074,124.695,405.074,128.695,395.074,132.695,399.074,128.695" fill="#181818" style="stroke:#181818;stroke-width:1;stroke-linejoin:miter;stroke-miterlimit:10;"/><line x1="235.435" y1="128.695" x2="401.074" y2="128.695" style="stroke:#181818;stroke-width:1;"/><text x="242.435" y="123.629" fill="#000" font-size="13" textLength="77.022">temp=22°C</text><polygon points="246.435,153.828,236.435,157.828,246.435,161.828,242.435,157.828" fill="#181818" style="stroke:#181818;stroke-width:1;stroke-linejoin:miter;stroke-miterlimit:10;"/><line x1="240.435" y1="157.828" x2="406.074" y2="157.828" style="stroke:#181818;stroke-width:1;"/><text x="252.435" y="152.762" fill="#000" font-size="13" textLength="89.927">poll_sensors()</text><polygon points="77.4,182.961,67.4,186.961,77.4,190.961,73.4,186.961" fill="#181818" style="stroke:#181818;stroke-width:1;stroke-linejoin:miter;stroke-miterlimit:10;"/><line x1="71.4" y1="186.961" x2="406.074" y2="186.961" style="stroke:#181818;stroke-width:1;"/><text x="83.4" y="181.895" fill="#000" font-size="13" textLength="37.254">ready</text><polygon points="395.074,212.094,405.074,216.094,395.074,220.094,399.074,216.094" fill="#181818" style="stroke:#181818;stroke-width:1;stroke-linejoin:miter;stroke-miterlimit:10;"/><line x1="66.4" y1="216.094" x2="401.074" y2="216.094" style="stroke:#181818;stroke-width:1;"/><text x="73.4" y="211.028" fill="#000" font-size="13" textLength="36.118">arm()</text></g></svg>