<svg xmlns="http://www.w3.org/2000/svg" xmlns:xlink="http://www.w3.org/1999/xlink" version="1.1" data-diagram-type="DESCRIPTION" style="width:469px;height:576px;background:#FFFFFF;" width="469px" height="576px" viewBox="0 0 469 576" zoomAndPan="magnify" preserveAspectRatio="none" contentStyleType="text/css"><?plantuml 1.2026.8?><defs/><g font-family="sans-serif" lengthAdjust="spacing"><polygon points="12,22,22,12,435.871,12,435.871,542.188,425.871,552.188,12,552.188,12,22" fill="none" style="stroke:#181818;stroke-width:1;stroke-linejoin:miter;stroke-miterlimit:10;"/><line x1="425.871" y1="22" x2="435.871" y2="12" style="stroke:#181818;stroke-width:1;"/><line x1="12" y1="22" x2="425.871" y2="22" style="stroke:#181818;stroke-width:1;"/><line x1="425.871" y1="22" x2="425.871" y2="552.188" style="stroke:#181818;stroke-width:1;"/><text x="191.091" y="37.995" fill="#000" font-size="14" textLength="57.688" font-weight="700">Vehicle</text><rect x="27" y="445.891" width="393.871" height="91.297" fill="none" style="stroke:#181818;stroke-width:1;" rx="2.5" ry="2.5"/><rect x="400.871" y="450.891" width="15" height="10" fill="none" style="stroke:#181818;stroke-width:1;"/><rect x="398.871" y="452.891" width="4" height="2" fill="none" style="stroke:#181818;stroke-width:1;"/><rect x="398.871" y="456.891" width="4" height="2" fill="none" style="stroke:#181818;stroke-width:1;"/><text x="149.629" y="471.886" fill="#000" font-size="14" textLength="148.613" font-weight="700">CollisionAvoidance</text><rect x="147.225" y="52" width="153.421" height="91.297" fill="none" style="stroke:#181818;stroke-width:1;" rx="2.5" ry="2.5"/><rect x="280.646" y="57" width="15" height="10" fill="none" style="stroke:#181818;stroke-width:1;"/><rect x="278.646" y="59" width="4" height="2" fill="none" style="stroke:#181818;stroke-width:1;"/><rect x="278.646" y="63" width="4" height="2" fill="none" style="stroke:#181818;stroke-width:1;"/><text x="156.024" y="77.995" fill="#000" font-size="14" textLength="135.823" font-weight="700">CollisionDetector</text><rect x="157.342" y="183.297" width="133.187" height="91.297" fill="none" style="stroke:#181818;stroke-width:1;" rx="2.5" ry="2.5"/><rect x="270.529" y="188.297" width="15" height="10" fill="none" style="stroke:#181818;stroke-width:1;"/><rect x="268.529" y="190.297" width="4" height="2" fill="none" style="stroke:#181818;stroke-width:1;"/><rect x="268.529" y="194.297" width="4" height="2" fill="none" style="stroke:#181818;stroke-width:1;"/><text x="172.963" y="209.292" fill="#000" font-size="14" textLength="101.944" font-weight="700">RiskAnalyzer</text><rect x="155.695" y="314.594" width="136.481" height="91.297" fill="none" style="stroke:#181818;stroke-width:1;" rx="2.5" ry="2.5"/><rect x="272.176" y="319.594" width="15" height="10" fill="none" style="stroke:#181818;stroke-width:1;"/><rect x="270.176" y="321.594" width="4" height="2" fill="none" style="stroke:#181818;stroke-width:1;"/><rect x="270.176" y="325.594" width="4" height="2" fill="none" style="stroke:#181818;stroke-width:1;"/><text x="161.486" y="340.589" fill="#000" font-size="14" textLength="124.899" font-weight="700">BrakeController</text><!--entity detectCollisionRisk--><g class="entity" data-qualified-name="Vehicle.CollisionAvoidance.detectCollisionRisk" id="ent0003" data-source-line="3"><rect x="42" y="485.891" width="152.439" height="36.297" fill="#F1F1F1" style="stroke:#181818;stroke-width:0.5;" rx="2.5" ry="2.5"/><text x="52" y="508.886" fill="#000" font-size="14" textLength="132.439">detectCollisionRisk</text></g><!--entity applyEmergencyBraking--><g class="entity" data-qualified-name="Vehicle.CollisionAvoidance.applyEmergencyBraking" id="ent0004" data-source-line="4"><rect x="214.439" y="485.891" width="191.432" height="36.297" fill="#F1F1F1" style="stroke:#181818;stroke-width:0.5;" rx="2.5" ry="2.5"/><text x="224.439" y="508.886" fill="#000" font-size="14" textLength="171.432">applyEmergencyBraking</text></g><!--entity detectCollision--><g class="entity" data-qualified-name="Vehicle.CollisionDetector.detectCollision" id="ent0006" data-source-line="7"><rect x="162.225" y="92" width="123.421" height="36.297" fill="#F1F1F1" style="stroke:#181818;stroke-width:0.5;" rx="2.5" ry="2.5"/><text x="172.225" y="114.995" fill="#000" font-size="14" textLength="103.421">detectCollision</text></g><!--entity analyzeRisk--><g class="entity" data-qualified-name="Vehicle.RiskAnalyzer.analyzeRisk" id="ent0008" data-source-line="10"><rect x="172.342" y="223.297" width="103.187" height="36.297" fill="#F1F1F1" style="stroke:#181818;stroke-width:0.5;" rx="2.5" ry="2.5"/><text x="182.342" y="246.292" fill="#000" font-size="14" textLength="83.187">analyzeRisk</text></g><!--entity applyBrakes--><g class="entity" data-qualified-name="Vehicle.BrakeController.applyBrakes" id="ent0010" data-source-line="13"><rect x="170.695" y="354.594" width="106.481" height="36.297" fill="#F1F1F1" style="stroke:#181818;stroke-width:0.5;" rx="2.5" ry="2.5"/><text x="180.695" y="377.589" fill="#000" font-size="14" textLength="86.481">applyBrakes</text></g><line x1="223.936" y1="143.297" x2="223.936" y2="183.297" style="stroke:#181818;stroke-width:1;"/><polygon points="223.936,183.297,227.936,174.297,223.936,178.297,219.936,174.297,223.936,183.297" fill="#181818" style="stroke:#181818;stroke-width:1;stroke-linejoin:miter;stroke-miterlimit:10;"/><line x1="223.936" y1="274.594" x2="223.936" y2="314.594" style="stroke:#181818;stroke-width:1;"/><polygon points="223.936,314.594,227.936,305.594,223.936,309.594,219.936,305.594,223.936,314.594" fill="#181818" style="stroke:#181818;stroke-width:1;stroke-linejoin:miter;stroke-miterlimit:10;"/><line x1="223.936" y1="405.891" x2="223.936" y2="445.891" style="stroke:#181818;stroke-width:1;"/><polygon points="223.936,445.891,227.936,436.891,223.936,440.891,219.936,436.891,223.936,445.891" fill="#181818" style="stroke:#181818;stroke-width:1;stroke-linejoin:miter;stroke-miterlimit:10;"/></g></svg>