<svg xmlns="http://www.w3.org/2000/svg" xmlns:xlink="http://www.w3.org/1999/xlink" version="1.1" data-diagram-type="DESCRIPTION" style="width:411px;height:576px;background:#FFFFFF;" width="411px" height="576px" viewBox="0 0 411 576" zoomAndPan="magnify" preserveAspectRatio="none" contentStyleType="text/css"><?plantuml 1.2026.8?><defs/><g font-family="sans-serif" lengthAdjust="spacing"><polygon points="12,22,22,12,377.096,12,377.096,542.188,367.096,552.188,12,552.188,12,22" fill="none" style="stroke:#181818;stroke-width:1;stroke-linejoin:miter;stroke-miterlimit:10;"/><line x1="367.096" y1="22" x2="377.096" y2="12" style="stroke:#181818;stroke-width:1;"/><line x1="12" y1="22" x2="367.096" y2="22" style="stroke:#181818;stroke-width:1;"/><line x1="367.096" y1="22" x2="367.096" y2="552.188" style="stroke:#181818;stroke-width:1;"/><text x="161.704" y="37.995" fill="#000" font-size="14" textLength="57.688" font-weight="700">Vehicle</text><rect x="28.477" y="183.297" width="332.143" height="91.297" fill="none" style="stroke:#181818;stroke-width:1;" rx="2.5" ry="2.5"/><rect x="340.619" y="188.297" width="15" height="10" fill="none" style="stroke:#181818;stroke-width:1;"/><rect x="338.619" y="190.297" width="4" height="2" fill="none" style="stroke:#181818;stroke-width:1;"/><rect x="338.619" y="194.297" width="4" height="2" fill="none" style="stroke:#181818;stroke-width:1;"/><text x="118.614" y="209.292" fill="#000" font-size="14" textLength="151.867" font-weight="700">DrowsinessMonitor</text><rect x="104.589" y="52" width="179.917" height="91.297" fill="none" style="stroke:#181818;stroke-width:1;" rx="2.5" ry="2.5"/><rect x="264.506" y="57" width="15" height="10" fill="none" style="stroke:#181818;stroke-width:1;"/><rect x="262.506" y="59" width="4" height="2" fill="none" style="stroke:#181818;stroke-width:1;"/><rect x="262.506" y="63" width="4" height="2" fill="none" style="stroke:#181818;stroke-width:1;"/><text x="142.215" y="77.995" fill="#000" font-size="14" textLength="104.665" font-weight="700">CabinCamera</text><rect x="125.125" y="314.594" width="138.847" height="91.297" fill="none" style="stroke:#181818;stroke-width:1;" rx="2.5" ry="2.5"/><rect x="243.971" y="319.594" width="15" height="10" fill="none" style="stroke:#181818;stroke-width:1;"/><rect x="241.971" y="321.594" width="4" height="2" fill="none" style="stroke:#181818;stroke-width:1;"/><rect x="241.971" y="325.594" width="4" height="2" fill="none" style="stroke:#181818;stroke-width:1;"/><text x="123.728" y="340.589" fill="#000" font-size="14" textLength="141.641" font-weight="700">DrowsinessScorer</text><rect x="27" y="445.891" width="335.096" height="91.297" fill="none" style="stroke:#181818;stroke-width:1;" rx="2.5" ry="2.5"/><rect x="342.096" y="450.891" width="15" height="10" fill="none" style="stroke:#181818;stroke-width:1;"/><rect x="340.096" y="452.891" width="4" height="2" fill="none" style="stroke:#181818;stroke-width:1;"/><rect x="340.096" y="456.891" width="4" height="2" fill="none" style="stroke:#181818;stroke-width:1;"/><text x="121.602" y="471.886" fill="#000" font-size="14" textLength="145.893" font-weight="700">DriverAlertSystem</text><!--entity estimateEyeState--><g class="entity" data-qualified-name="Vehicle.DrowsinessMonitor.estimateEyeState" id="ent0003" data-source-line="3"><rect x="43.477" y="223.297" width="144.407" height="36.297" fill="#F1F1F1" style="stroke:#181818;stroke-width:0.5;" rx="2.5" ry="2.5"/><text x="53.477" y="246.292" fill="#000" font-size="14" textLength="124.407">estimateEyeState</text></g><!--entity scoreDrowsiness--><g class="entity" data-qualified-name="Vehicle.DrowsinessMonitor.scoreDrowsiness" id="ent0004" data-source-line="4"><rect x="207.884" y="223.297" width="137.735" height="36.297" fill="#F1F1F1" style="stroke:#181818;stroke-width:0.5;" rx="2.5" ry="2.5"/><text x="217.884" y="246.292" fill="#000" font-size="14" textLength="117.735">scoreDrowsiness</text></g><!--entity captureDriverFace--><g class="entity" data-qualified-name="Vehicle.CabinCamera.captureDriverFace" id="ent0006" data-source-line="7"><rect x="119.589" y="92" width="149.917" height="36.297" fill="#F1F1F1" style="stroke:#181818;stroke-width:0.5;" rx="2.5" ry="2.5"/><text x="129.589" y="114.995" fill="#000" font-size="14" textLength="129.917">captureDriverFace</text></g><!--entity updateScore--><g class="entity" data-qualified-name="Vehicle.DrowsinessScorer.updateScore" id="ent0008" data-source-line="10"><rect x="140.125" y="354.594" width="108.847" height="36.297" fill="#F1F1F1" style="stroke:#181818;stroke-width:0.5;" rx="2.5" ry="2.5"/><text x="150.125" y="377.589" fill="#000" font-size="14" textLength="88.847">updateScore</text></g><!--entity issueDrowsinessAlert--><g class="entity" data-qualified-name="Vehicle.DriverAlertSystem.issueDrowsinessAlert" id="ent0010" data-source-line="13"><rect x="42" y="485.891" width="169.099" height="36.297" fill="#F1F1F1" style="stroke:#181818;stroke-width:0.5;" rx="2.5" ry="2.5"/><text x="52" y="508.886" fill="#000" font-size="14" textLength="149.099">issueDrowsinessAlert</text></g><!--entity suggestBreak--><g class="entity" data-qualified-name="Vehicle.DriverAlertSystem.suggestBreak" id="ent0011" data-source-line="14"><rect x="231.099" y="485.891" width="115.997" height="36.297" fill="#F1F1F1" style="stroke:#181818;stroke-width:0.5;" rx="2.5" ry="2.5"/><text x="241.099" y="508.886" fill="#000" font-size="14" textLength="95.997">suggestBreak</text></g><line x1="194.548" y1="143.297" x2="194.548" y2="183.297" style="stroke:#181818;stroke-width:1;"/><polygon points="194.548,183.297,198.548,174.297,194.548,178.297,190.548,174.297,194.548,183.297" fill="#181818" style="stroke:#181818;stroke-width:1;stroke-linejoin:miter;stroke-miterlimit:10;"/><line x1="194.548" y1="274.594" x2="194.548" y2="314.594" style="stroke:#181818;stroke-width:1;"/><polygon points="194.548,314.594,198.548,305.594,194.548,309.594,190.548,305.594,194.548,314.594" fill="#181818" style="stroke:#181818;stroke-width:1;stroke-linejoin:miter;stroke-miterlimit:10;"/><line x1="194.548" y1="405.891" x2="194.548" y2="445.891" style="stroke:#181818;stroke-width:1;"/><polygon points="194.548,445.891,198.548,436.891,194.548,440.891,190.548,436.891,194.548,445.891" fill="#181818" style="stroke:#181818;stroke-width:1;stroke-linejoin:miter;stroke-miterlimit:10;"/></g></svg>