<svg xmlns="http://www.w3.org/2000/svg" xmlns:xlink="http://www.w3.org/1999/xlink" version="1.1" data-diagram-type="DESCRIPTION" style="width:3967px;height:558px;background:#FFFFFF;" width="3967px" height="558px" viewBox="0 0 3967 558" zoomAndPan="magnify" preserveAspectRatio="none" contentStyleType="text/css"><?plantuml 1.2026.8?><defs/><g font-family="sans-serif" lengthAdjust="spacing"><!--entity FSR_WRDC_CTRL_01--><g class="entity" data-qualified-name="FSR_WRDC_CTRL_01" id="ent0001" data-source-line="1"><a target="_top" href="fsr.html#entity-FSR_WRDC_CTRL_01" xlink:href="fsr.html#entity-FSR_WRDC_CTRL_01" xlink:type="simple" xlink:actuate="onRequest" xlink:show="new" title="fsr.html#entity-FSR_WRDC_CTRL_01" xlink:title="fsr.html#entity-FSR_WRDC_CTRL_01"><rect x="1576.359" y="12" width="239.844" height="47.938" fill="#F1F1F1" style="stroke:#181818;stroke-width:0.5;" rx="2.5" ry="2.5"/><text x="1586.359" y="34.995" fill="#000" font-size="14" textLength="219.844">WRDC Fault-Tolerant Algorithm</text><text x="1586.359" y="47.579" fill="#000" font-size="10" textLength="123.291">fsr: FSR_WRDC_CTRL_01</text></a></g><!--entity FSR_WRDC_CTRL_02--><g class="entity" data-qualified-name="FSR_WRDC_CTRL_02" id="ent0002" data-source-line="2"><a target="_top" href="fsr.html#entity-FSR_WRDC_CTRL_02" xlink:href="fsr.html#entity-FSR_WRDC_CTRL_02" xlink:type="simple" xlink:actuate="onRequest" xlink:show="new" title="fsr.html#entity-FSR_WRDC_CTRL_02" xlink:title="fsr.html#entity-FSR_WRDC_CTRL_02"><rect x="1836.203" y="12" width="232.967" height="47.938" fill="#F1F1F1" style="stroke:#181818;stroke-width:0.5;" rx="2.5" ry="2.5"/><text x="1846.203" y="34.995" fill="#000" font-size="14" textLength="212.967">WRDC Fail-Operational Design</text><text x="1846.203" y="47.579" fill="#000" font-size="10" textLength="123.291">fsr: FSR_WRDC_CTRL_02</text></a></g><!--entity FSR_WRDC_CTRL_03--><g class="entity" data-qualified-name="FSR_WRDC_CTRL_03" id="ent0003" data-source-line="3"><a target="_top" href="fsr.html#entity-FSR_WRDC_CTRL_03" xlink:href="fsr.html#entity-FSR_WRDC_CTRL_03" xlink:type="simple" xlink:actuate="onRequest" xlink:show="new" title="fsr.html#entity-FSR_WRDC_CTRL_03" xlink:title="fsr.html#entity-FSR_WRDC_CTRL_03"><rect x="2089.17" y="12" width="238.853" height="47.938" fill="#F1F1F1" style="stroke:#181818;stroke-width:0.5;" rx="2.5" ry="2.5"/><text x="2099.17" y="34.995" fill="#000" font-size="14" textLength="218.853">WRDC Precise Dynamics Model</text><text x="2099.17" y="47.579" fill="#000" font-size="10" textLength="123.291">fsr: FSR_WRDC_CTRL_03</text></a></g><!--entity FSR_WRDC_CTRL_04--><g class="entity" data-qualified-name="FSR_WRDC_CTRL_04" id="ent0004" data-source-line="4"><a target="_top" href="fsr.html#entity-FSR_WRDC_CTRL_04" xlink:href="fsr.html#entity-FSR_WRDC_CTRL_04" xlink:type="simple" xlink:actuate="onRequest" xlink:show="new" title="fsr.html#entity-FSR_WRDC_CTRL_04" xlink:title="fsr.html#entity-FSR_WRDC_CTRL_04"><rect x="1337.338" y="12" width="219.021" height="47.938" fill="#F1F1F1" style="stroke:#181818;stroke-width:0.5;" rx="2.5" ry="2.5"/><text x="1347.338" y="34.995" fill="#000" font-size="14" textLength="199.021">WRDC Timing Requirements</text><text x="1347.338" y="47.579" fill="#000" font-size="10" textLength="123.291">fsr: FSR_WRDC_CTRL_04</text></a></g><!--entity HAZ_TRAJ_DEV--><g class="entity" data-qualified-name="HAZ_TRAJ_DEV" id="ent0005" data-source-line="5"><a target="_top" href="hara.html#entity-HAZ_TRAJ_DEV" xlink:href="hara.html#entity-HAZ_TRAJ_DEV" xlink:type="simple" xlink:actuate="onRequest" xlink:show="new" title="hara.html#entity-HAZ_TRAJ_DEV" xlink:title="hara.html#entity-HAZ_TRAJ_DEV"><rect x="181.966" y="496.141" width="313.091" height="47.938" fill="#F1F1F1" style="stroke:#181818;stroke-width:0.5;" rx="2.5" ry="2.5"/><text x="191.966" y="519.136" fill="#000" font-size="14" textLength="293.091">Vehicle Not Following Intended Trajectory</text><text x="191.966" y="531.72" fill="#000" font-size="10" textLength="115.767">hazard: HAZ_TRAJ_DEV</text></a></g><!--entity SG_05--><g class="entity" data-qualified-name="SG_05" id="ent0006" data-source-line="6"><a target="_top" href="safety_goals.html#entity-SG_05" xlink:href="safety_goals.html#entity-SG_05" xlink:type="simple" xlink:actuate="onRequest" xlink:show="new" title="safety_goals.html#entity-SG_05" xlink:title="safety_goals.html#entity-SG_05"><rect x="430.774" y="329.07" width="421.844" height="47.938" fill="#F1F1F1" style="stroke:#181818;stroke-width:0.5;" rx="2.5" ry="2.5"/><text x="440.774" y="352.065" fill="#000" font-size="14" textLength="401.844">WRDC Must Change Target Brake Torque When Required</text><text x="440.774" y="364.649" fill="#000" font-size="10" textLength="95.591">safety_goal: SG_05</text></a></g><!--entity SG_06--><g class="entity" data-qualified-name="SG_06" id="ent0007" data-source-line="7"><a target="_top" href="safety_goals.html#entity-SG_06" xlink:href="safety_goals.html#entity-SG_06" xlink:type="simple" xlink:actuate="onRequest" xlink:show="new" title="safety_goals.html#entity-SG_06" xlink:title="safety_goals.html#entity-SG_06"><rect x="872.618" y="329.07" width="458.361" height="47.938" fill="#F1F1F1" style="stroke:#181818;stroke-width:0.5;" rx="2.5" ry="2.5"/><text x="882.618" y="352.065" fill="#000" font-size="14" textLength="438.361">WRDC Must Change Target Brake Torque Only When Required</text><text x="882.618" y="364.649" fill="#000" font-size="10" textLength="95.591">safety_goal: SG_06</text></a></g><!--entity SG_07--><g class="entity" data-qualified-name="SG_07" id="ent0008" data-source-line="8"><a target="_top" href="safety_goals.html#entity-SG_07" xlink:href="safety_goals.html#entity-SG_07" xlink:type="simple" xlink:actuate="onRequest" xlink:show="new" title="safety_goals.html#entity-SG_07" xlink:title="safety_goals.html#entity-SG_07"><rect x="1350.979" y="329.07" width="418.508" height="47.938" fill="#F1F1F1" style="stroke:#181818;stroke-width:0.5;" rx="2.5" ry="2.5"/><text x="1360.979" y="352.065" fill="#000" font-size="14" textLength="398.508">WRDC Must Change Target Drive Torque When Required</text><text x="1360.979" y="364.649" fill="#000" font-size="10" textLength="95.591">safety_goal: SG_07</text></a></g><!--entity SG_08--><g class="entity" data-qualified-name="SG_08" id="ent0009" data-source-line="9"><a target="_top" href="safety_goals.html#entity-SG_08" xlink:href="safety_goals.html#entity-SG_08" xlink:type="simple" xlink:actuate="onRequest" xlink:show="new" title="safety_goals.html#entity-SG_08" xlink:title="safety_goals.html#entity-SG_08"><rect x="2203.663" y="329.07" width="455.025" height="47.938" fill="#F1F1F1" style="stroke:#181818;stroke-width:0.5;" rx="2.5" ry="2.5"/><text x="2213.663" y="352.065" fill="#000" font-size="14" textLength="435.025">WRDC Must Change Target Drive Torque Only When Required</text><text x="2213.663" y="364.649" fill="#000" font-size="10" textLength="95.591">safety_goal: SG_08</text></a></g><!--entity SG_09--><g class="entity" data-qualified-name="SG_09" id="ent0010" data-source-line="10"><a target="_top" href="safety_goals.html#entity-SG_09" xlink:href="safety_goals.html#entity-SG_09" xlink:type="simple" xlink:actuate="onRequest" xlink:show="new" title="safety_goals.html#entity-SG_09" xlink:title="safety_goals.html#entity-SG_09"><rect x="2678.688" y="329.07" width="423.874" height="47.938" fill="#F1F1F1" style="stroke:#181818;stroke-width:0.5;" rx="2.5" ry="2.5"/><text x="2688.688" y="352.065" fill="#000" font-size="14" textLength="403.874">Anti-lock Control Must Be Performed Only When Required</text><text x="2688.688" y="364.649" fill="#000" font-size="10" textLength="95.591">safety_goal: SG_09</text></a></g><!--entity SG_10--><g class="entity" data-qualified-name="SG_10" id="ent0011" data-source-line="11"><a target="_top" href="safety_goals.html#entity-SG_10" xlink:href="safety_goals.html#entity-SG_10" xlink:type="simple" xlink:actuate="onRequest" xlink:show="new" title="safety_goals.html#entity-SG_10" xlink:title="safety_goals.html#entity-SG_10"><rect x="3122.562" y="329.07" width="387.356" height="47.938" fill="#F1F1F1" style="stroke:#181818;stroke-width:0.5;" rx="2.5" ry="2.5"/><text x="3132.562" y="352.065" fill="#000" font-size="14" textLength="367.356">Anti-lock Control Must Be Performed When Required</text><text x="3132.562" y="364.649" fill="#000" font-size="10" textLength="95.591">safety_goal: SG_10</text></a></g><!--entity SG_11--><g class="entity" data-qualified-name="SG_11" id="ent0012" data-source-line="12"><a target="_top" href="safety_goals.html#entity-SG_11" xlink:href="safety_goals.html#entity-SG_11" xlink:type="simple" xlink:actuate="onRequest" xlink:show="new" title="safety_goals.html#entity-SG_11" xlink:title="safety_goals.html#entity-SG_11"><rect x="3529.919" y="329.07" width="424.558" height="47.938" fill="#F1F1F1" style="stroke:#181818;stroke-width:0.5;" rx="2.5" ry="2.5"/><text x="3539.919" y="352.065" fill="#000" font-size="14" textLength="404.558">Anti-spin Control Must Be Performed Only When Required</text><text x="3539.919" y="364.649" fill="#000" font-size="10" textLength="95.591">safety_goal: SG_11</text></a></g><!--entity SG_12--><g class="entity" data-qualified-name="SG_12" id="ent0013" data-source-line="13"><a target="_top" href="safety_goals.html#entity-SG_12" xlink:href="safety_goals.html#entity-SG_12" xlink:type="simple" xlink:actuate="onRequest" xlink:show="new" title="safety_goals.html#entity-SG_12" xlink:title="safety_goals.html#entity-SG_12"><rect x="22.734" y="329.07" width="388.04" height="47.938" fill="#F1F1F1" style="stroke:#181818;stroke-width:0.5;" rx="2.5" ry="2.5"/><text x="32.734" y="352.065" fill="#000" font-size="14" textLength="368.04">Anti-spin Control Must Be Performed When Required</text><text x="32.734" y="364.649" fill="#000" font-size="10" textLength="95.591">safety_goal: SG_12</text></a></g><line x1="1629.658" y1="59.938" x2="1629.658" y2="139.938" style="stroke:#181818;stroke-width:1;"/><line x1="1629.658" y1="139.938" x2="614.484" y2="139.938" style="stroke:#181818;stroke-width:1;"/><line x1="614.484" y1="139.938" x2="614.484" y2="299.07" style="stroke:#181818;stroke-width:1;"/><line x1="614.484" y1="299.07" x2="599.511" y2="299.07" style="stroke:#181818;stroke-width:1;"/><line x1="599.511" y1="299.07" x2="599.511" y2="329.07" style="stroke:#181818;stroke-width:1;"/><polygon points="599.511,329.07,603.511,320.07,599.511,324.07,595.511,320.07,599.511,329.07" fill="#181818" style="stroke:#181818;stroke-width:1;stroke-linejoin:miter;stroke-miterlimit:10;"/><text x="528.143" y="284.004" fill="#000" font-size="13" textLength="82.342">derives from</text><line x1="1656.307" y1="59.938" x2="1656.307" y2="189.938" style="stroke:#181818;stroke-width:1;"/><line x1="1656.307" y1="189.938" x2="1063.632" y2="189.938" style="stroke:#181818;stroke-width:1;"/><line x1="1063.632" y1="189.938" x2="1063.632" y2="299.07" style="stroke:#181818;stroke-width:1;"/><line x1="1063.632" y1="299.07" x2="1055.962" y2="299.07" style="stroke:#181818;stroke-width:1;"/><line x1="1055.962" y1="299.07" x2="1055.962" y2="329.07" style="stroke:#181818;stroke-width:1;"/><polygon points="1055.962,329.07,1059.962,320.07,1055.962,324.07,1051.962,320.07,1055.962,329.07" fill="#181818" style="stroke:#181818;stroke-width:1;stroke-linejoin:miter;stroke-miterlimit:10;"/><text x="977.29" y="284.004" fill="#000" font-size="13" textLength="82.342">derives from</text><line x1="1682.956" y1="59.938" x2="1682.956" y2="299.07" style="stroke:#181818;stroke-width:1;"/><line x1="1682.956" y1="299.07" x2="1518.382" y2="299.07" style="stroke:#181818;stroke-width:1;"/><line x1="1518.382" y1="299.07" x2="1518.382" y2="329.07" style="stroke:#181818;stroke-width:1;"/><polygon points="1518.382,329.07,1522.382,320.07,1518.382,324.07,1514.382,320.07,1518.382,329.07" fill="#181818" style="stroke:#181818;stroke-width:1;stroke-linejoin:miter;stroke-miterlimit:10;"/><text x="1596.614" y="284.004" fill="#000" font-size="13" textLength="82.342">derives from</text><line x1="1709.606" y1="59.938" x2="1709.606" y2="229.938" style="stroke:#181818;stroke-width:1;"/><line x1="1709.606" y1="229.938" x2="2394.01" y2="229.938" style="stroke:#181818;stroke-width:1;"/><line x1="2394.01" y1="229.938" x2="2394.01" y2="299.07" style="stroke:#181818;stroke-width:1;"/><line x1="2394.01" y1="299.07" x2="2385.673" y2="299.07" style="stroke:#181818;stroke-width:1;"/><line x1="2385.673" y1="299.07" x2="2385.673" y2="329.07" style="stroke:#181818;stroke-width:1;"/><polygon points="2385.673,329.07,2389.673,320.07,2385.673,324.07,2381.673,320.07,2385.673,329.07" fill="#181818" style="stroke:#181818;stroke-width:1;stroke-linejoin:miter;stroke-miterlimit:10;"/><text x="2307.668" y="284.004" fill="#000" font-size="13" textLength="82.342">derives from</text><line x1="1736.255" y1="59.938" x2="1736.255" y2="189.938" style="stroke:#181818;stroke-width:1;"/><line x1="1736.255" y1="189.938" x2="2862.805" y2="189.938" style="stroke:#181818;stroke-width:1;"/><line x1="2862.805" y1="189.938" x2="2862.805" y2="299.07" style="stroke:#181818;stroke-width:1;"/><line x1="2862.805" y1="299.07" x2="2848.238" y2="299.07" style="stroke:#181818;stroke-width:1;"/><line x1="2848.238" y1="299.07" x2="2848.238" y2="329.07" style="stroke:#181818;stroke-width:1;"/><polygon points="2848.238,329.07,2852.238,320.07,2848.238,324.07,2844.238,320.07,2848.238,329.07" fill="#181818" style="stroke:#181818;stroke-width:1;stroke-linejoin:miter;stroke-miterlimit:10;"/><text x="2776.463" y="284.004" fill="#000" font-size="13" textLength="82.342">derives from</text><line x1="1762.904" y1="59.938" x2="1762.904" y2="149.938" style="stroke:#181818;stroke-width:1;"/><line x1="1762.904" y1="149.938" x2="3299.376" y2="149.938" style="stroke:#181818;stroke-width:1;"/><line x1="3299.376" y1="149.938" x2="3299.376" y2="299.07" style="stroke:#181818;stroke-width:1;"/><line x1="3299.376" y1="299.07" x2="3277.505" y2="299.07" style="stroke:#181818;stroke-width:1;"/><line x1="3277.505" y1="299.07" x2="3277.505" y2="329.07" style="stroke:#181818;stroke-width:1;"/><polygon points="3277.505,329.07,3281.505,320.07,3277.505,324.07,3273.505,320.07,3277.505,329.07" fill="#181818" style="stroke:#181818;stroke-width:1;stroke-linejoin:miter;stroke-miterlimit:10;"/><text x="3213.034" y="284.004" fill="#000" font-size="13" textLength="82.342">derives from</text><line x1="1789.554" y1="59.938" x2="1789.554" y2="119.938" style="stroke:#181818;stroke-width:1;"/><line x1="1789.554" y1="119.938" x2="3714.172" y2="119.938" style="stroke:#181818;stroke-width:1;"/><line x1="3714.172" y1="119.938" x2="3714.172" y2="299.07" style="stroke:#181818;stroke-width:1;"/><line x1="3714.172" y1="299.07" x2="3699.742" y2="299.07" style="stroke:#181818;stroke-width:1;"/><line x1="3699.742" y1="299.07" x2="3699.742" y2="329.07" style="stroke:#181818;stroke-width:1;"/><polygon points="3699.742,329.07,3703.742,320.07,3699.742,324.07,3695.742,320.07,3699.742,329.07" fill="#181818" style="stroke:#181818;stroke-width:1;stroke-linejoin:miter;stroke-miterlimit:10;"/><text x="3627.83" y="284.004" fill="#000" font-size="13" textLength="82.342">derives from</text><line x1="1603.008" y1="59.938" x2="1603.008" y2="79.938" style="stroke:#181818;stroke-width:1;"/><line x1="1603.008" y1="79.938" x2="199.684" y2="79.938" style="stroke:#181818;stroke-width:1;"/><line x1="199.684" y1="79.938" x2="199.684" y2="299.07" style="stroke:#181818;stroke-width:1;"/><line x1="199.684" y1="299.07" x2="177.95" y2="299.07" style="stroke:#181818;stroke-width:1;"/><line x1="177.95" y1="299.07" x2="177.95" y2="329.07" style="stroke:#181818;stroke-width:1;"/><polygon points="177.95,329.07,181.95,320.07,177.95,324.07,173.95,320.07,177.95,329.07" fill="#181818" style="stroke:#181818;stroke-width:1;stroke-linejoin:miter;stroke-miterlimit:10;"/><text x="113.342" y="284.004" fill="#000" font-size="13" textLength="82.342">derives from</text><line x1="1887.973" y1="59.938" x2="1887.973" y2="179.938" style="stroke:#181818;stroke-width:1;"/><line x1="1887.973" y1="179.938" x2="713.826" y2="179.938" style="stroke:#181818;stroke-width:1;"/><line x1="713.826" y1="179.938" x2="713.826" y2="299.07" style="stroke:#181818;stroke-width:1;"/><line x1="713.826" y1="299.07" x2="683.88" y2="299.07" style="stroke:#181818;stroke-width:1;"/><line x1="683.88" y1="299.07" x2="683.88" y2="329.07" style="stroke:#181818;stroke-width:1;"/><polygon points="683.88,329.07,687.88,320.07,683.88,324.07,679.88,320.07,683.88,329.07" fill="#181818" style="stroke:#181818;stroke-width:1;stroke-linejoin:miter;stroke-miterlimit:10;"/><text x="627.484" y="284.004" fill="#000" font-size="13" textLength="82.342">derives from</text><line x1="1913.858" y1="59.938" x2="1913.858" y2="219.938" style="stroke:#181818;stroke-width:1;"/><line x1="1913.858" y1="219.938" x2="1162.973" y2="219.938" style="stroke:#181818;stroke-width:1;"/><line x1="1162.973" y1="219.938" x2="1162.973" y2="299.07" style="stroke:#181818;stroke-width:1;"/><line x1="1162.973" y1="299.07" x2="1147.634" y2="299.07" style="stroke:#181818;stroke-width:1;"/><line x1="1147.634" y1="299.07" x2="1147.634" y2="329.07" style="stroke:#181818;stroke-width:1;"/><polygon points="1147.634,329.07,1151.634,320.07,1147.634,324.07,1143.634,320.07,1147.634,329.07" fill="#181818" style="stroke:#181818;stroke-width:1;stroke-linejoin:miter;stroke-miterlimit:10;"/><text x="1076.632" y="284.004" fill="#000" font-size="13" textLength="82.342">derives from</text><line x1="1939.744" y1="59.938" x2="1939.744" y2="309.07" style="stroke:#181818;stroke-width:1;"/><line x1="1939.744" y1="309.07" x2="1602.084" y2="309.07" style="stroke:#181818;stroke-width:1;"/><line x1="1602.084" y1="309.07" x2="1602.084" y2="329.07" style="stroke:#181818;stroke-width:1;"/><polygon points="1602.084,329.07,1606.084,320.07,1602.084,324.07,1598.084,320.07,1602.084,329.07" fill="#181818" style="stroke:#181818;stroke-width:1;stroke-linejoin:miter;stroke-miterlimit:10;"/><text x="1853.402" y="284.004" fill="#000" font-size="13" textLength="82.342">derives from</text><line x1="1965.629" y1="59.938" x2="1965.629" y2="179.938" style="stroke:#181818;stroke-width:1;"/><line x1="1965.629" y1="179.938" x2="2493.352" y2="179.938" style="stroke:#181818;stroke-width:1;"/><line x1="2493.352" y1="179.938" x2="2493.352" y2="299.07" style="stroke:#181818;stroke-width:1;"/><line x1="2493.352" y1="299.07" x2="2476.678" y2="299.07" style="stroke:#181818;stroke-width:1;"/><line x1="2476.678" y1="299.07" x2="2476.678" y2="329.07" style="stroke:#181818;stroke-width:1;"/><polygon points="2476.678,329.07,2480.678,320.07,2476.678,324.07,2472.678,320.07,2476.678,329.07" fill="#181818" style="stroke:#181818;stroke-width:1;stroke-linejoin:miter;stroke-miterlimit:10;"/><text x="2407.01" y="284.004" fill="#000" font-size="13" textLength="82.342">derives from</text><line x1="1991.514" y1="59.938" x2="1991.514" y2="139.938" style="stroke:#181818;stroke-width:1;"/><line x1="1991.514" y1="139.938" x2="2962.147" y2="139.938" style="stroke:#181818;stroke-width:1;"/><line x1="2962.147" y1="139.938" x2="2962.147" y2="299.07" style="stroke:#181818;stroke-width:1;"/><line x1="2962.147" y1="299.07" x2="2933.013" y2="299.07" style="stroke:#181818;stroke-width:1;"/><line x1="2933.013" y1="299.07" x2="2933.013" y2="329.07" style="stroke:#181818;stroke-width:1;"/><polygon points="2933.013,329.07,2937.013,320.07,2933.013,324.07,2929.013,320.07,2933.013,329.07" fill="#181818" style="stroke:#181818;stroke-width:1;stroke-linejoin:miter;stroke-miterlimit:10;"/><text x="2875.805" y="284.004" fill="#000" font-size="13" textLength="82.342">derives from</text><line x1="2017.399" y1="59.938" x2="2017.399" y2="109.938" style="stroke:#181818;stroke-width:1;"/><line x1="2017.399" y1="109.938" x2="3398.717" y2="109.938" style="stroke:#181818;stroke-width:1;"/><line x1="3398.717" y1="109.938" x2="3398.717" y2="299.07" style="stroke:#181818;stroke-width:1;"/><line x1="3398.717" y1="299.07" x2="3354.976" y2="299.07" style="stroke:#181818;stroke-width:1;"/><line x1="3354.976" y1="299.07" x2="3354.976" y2="329.07" style="stroke:#181818;stroke-width:1;"/><polygon points="3354.976,329.07,3358.976,320.07,3354.976,324.07,3350.976,320.07,3354.976,329.07" fill="#181818" style="stroke:#181818;stroke-width:1;stroke-linejoin:miter;stroke-miterlimit:10;"/><text x="3312.376" y="284.004" fill="#000" font-size="13" textLength="82.342">derives from</text><line x1="2043.284" y1="59.938" x2="2043.284" y2="89.938" style="stroke:#181818;stroke-width:1;"/><line x1="2043.284" y1="89.938" x2="3813.514" y2="89.938" style="stroke:#181818;stroke-width:1;"/><line x1="3813.514" y1="89.938" x2="3813.514" y2="299.07" style="stroke:#181818;stroke-width:1;"/><line x1="3813.514" y1="299.07" x2="3784.653" y2="299.07" style="stroke:#181818;stroke-width:1;"/><line x1="3784.653" y1="299.07" x2="3784.653" y2="329.07" style="stroke:#181818;stroke-width:1;"/><polygon points="3784.653,329.07,3788.653,320.07,3784.653,324.07,3780.653,320.07,3784.653,329.07" fill="#181818" style="stroke:#181818;stroke-width:1;stroke-linejoin:miter;stroke-miterlimit:10;"/><text x="3727.172" y="284.004" fill="#000" font-size="13" textLength="82.342">derives from</text><line x1="1862.088" y1="59.938" x2="1862.088" y2="129.938" style="stroke:#181818;stroke-width:1;"/><line x1="1862.088" y1="129.938" x2="299.025" y2="129.938" style="stroke:#181818;stroke-width:1;"/><line x1="299.025" y1="129.938" x2="299.025" y2="299.07" style="stroke:#181818;stroke-width:1;"/><line x1="299.025" y1="299.07" x2="255.558" y2="299.07" style="stroke:#181818;stroke-width:1;"/><line x1="255.558" y1="299.07" x2="255.558" y2="329.07" style="stroke:#181818;stroke-width:1;"/><polygon points="255.558,329.07,259.558,320.07,255.558,324.07,251.558,320.07,255.558,329.07" fill="#181818" style="stroke:#181818;stroke-width:1;stroke-linejoin:miter;stroke-miterlimit:10;"/><text x="212.684" y="284.004" fill="#000" font-size="13" textLength="82.342">derives from</text><line x1="2142.248" y1="59.938" x2="2142.248" y2="209.938" style="stroke:#181818;stroke-width:1;"/><line x1="2142.248" y1="209.938" x2="813.168" y2="209.938" style="stroke:#181818;stroke-width:1;"/><line x1="813.168" y1="209.938" x2="813.168" y2="299.07" style="stroke:#181818;stroke-width:1;"/><line x1="813.168" y1="299.07" x2="768.249" y2="299.07" style="stroke:#181818;stroke-width:1;"/><line x1="768.249" y1="299.07" x2="768.249" y2="329.07" style="stroke:#181818;stroke-width:1;"/><polygon points="768.249,329.07,772.249,320.07,768.249,324.07,764.249,320.07,768.249,329.07" fill="#181818" style="stroke:#181818;stroke-width:1;stroke-linejoin:miter;stroke-miterlimit:10;"/><text x="726.826" y="284.004" fill="#000" font-size="13" textLength="82.342">derives from</text><line x1="2168.787" y1="59.938" x2="2168.787" y2="249.938" style="stroke:#181818;stroke-width:1;"/><line x1="2168.787" y1="249.938" x2="1262.315" y2="249.938" style="stroke:#181818;stroke-width:1;"/><line x1="1262.315" y1="249.938" x2="1262.315" y2="299.07" style="stroke:#181818;stroke-width:1;"/><line x1="1262.315" y1="299.07" x2="1239.307" y2="299.07" style="stroke:#181818;stroke-width:1;"/><line x1="1239.307" y1="299.07" x2="1239.307" y2="329.07" style="stroke:#181818;stroke-width:1;"/><polygon points="1239.307,329.07,1243.307,320.07,1239.307,324.07,1235.307,320.07,1239.307,329.07" fill="#181818" style="stroke:#181818;stroke-width:1;stroke-linejoin:miter;stroke-miterlimit:10;"/><text x="1175.973" y="284.004" fill="#000" font-size="13" textLength="82.342">derives from</text><line x1="2195.326" y1="59.938" x2="2195.326" y2="319.07" style="stroke:#181818;stroke-width:1;"/><line x1="2195.326" y1="319.07" x2="1685.785" y2="319.07" style="stroke:#181818;stroke-width:1;"/><line x1="1685.785" y1="319.07" x2="1685.785" y2="329.07" style="stroke:#181818;stroke-width:1;"/><polygon points="1685.785,329.07,1689.785,320.07,1685.785,324.07,1681.785,320.07,1685.785,329.07" fill="#181818" style="stroke:#181818;stroke-width:1;stroke-linejoin:miter;stroke-miterlimit:10;"/><text x="2108.985" y="284.004" fill="#000" font-size="13" textLength="82.342">derives from</text><line x1="2221.865" y1="59.938" x2="2221.865" y2="129.938" style="stroke:#181818;stroke-width:1;"/><line x1="2221.865" y1="129.938" x2="2592.693" y2="129.938" style="stroke:#181818;stroke-width:1;"/><line x1="2592.693" y1="129.938" x2="2592.693" y2="299.07" style="stroke:#181818;stroke-width:1;"/><line x1="2592.693" y1="299.07" x2="2567.683" y2="299.07" style="stroke:#181818;stroke-width:1;"/><line x1="2567.683" y1="299.07" x2="2567.683" y2="329.07" style="stroke:#181818;stroke-width:1;"/><polygon points="2567.683,329.07,2571.683,320.07,2567.683,324.07,2563.683,320.07,2567.683,329.07" fill="#181818" style="stroke:#181818;stroke-width:1;stroke-linejoin:miter;stroke-miterlimit:10;"/><text x="2506.352" y="284.004" fill="#000" font-size="13" textLength="82.342">derives from</text><line x1="2248.405" y1="59.938" x2="2248.405" y2="99.938" style="stroke:#181818;stroke-width:1;"/><line x1="2248.405" y1="99.938" x2="3061.489" y2="99.938" style="stroke:#181818;stroke-width:1;"/><line x1="3061.489" y1="99.938" x2="3061.489" y2="299.07" style="stroke:#181818;stroke-width:1;"/><line x1="3061.489" y1="299.07" x2="3017.788" y2="299.07" style="stroke:#181818;stroke-width:1;"/><line x1="3017.788" y1="299.07" x2="3017.788" y2="329.07" style="stroke:#181818;stroke-width:1;"/><polygon points="3017.788,329.07,3021.788,320.07,3017.788,324.07,3013.788,320.07,3017.788,329.07" fill="#181818" style="stroke:#181818;stroke-width:1;stroke-linejoin:miter;stroke-miterlimit:10;"/><text x="2975.147" y="284.004" fill="#000" font-size="13" textLength="82.342">derives from</text><line x1="2274.944" y1="59.938" x2="2274.944" y2="79.938" style="stroke:#181818;stroke-width:1;"/><line x1="2274.944" y1="79.938" x2="3498.059" y2="79.938" style="stroke:#181818;stroke-width:1;"/><line x1="3498.059" y1="79.938" x2="3498.059" y2="299.07" style="stroke:#181818;stroke-width:1;"/><line x1="3498.059" y1="299.07" x2="3432.448" y2="299.07" style="stroke:#181818;stroke-width:1;"/><line x1="3432.448" y1="299.07" x2="3432.448" y2="329.07" style="stroke:#181818;stroke-width:1;"/><polygon points="3432.448,329.07,3436.448,320.07,3432.448,324.07,3428.448,320.07,3432.448,329.07" fill="#181818" style="stroke:#181818;stroke-width:1;stroke-linejoin:miter;stroke-miterlimit:10;"/><text x="3411.717" y="284.004" fill="#000" font-size="13" textLength="82.342">derives from</text><line x1="2301.483" y1="59.938" x2="2301.483" y2="69.938" style="stroke:#181818;stroke-width:1;"/><line x1="2301.483" y1="69.938" x2="3912.856" y2="69.938" style="stroke:#181818;stroke-width:1;"/><line x1="3912.856" y1="69.938" x2="3912.856" y2="299.07" style="stroke:#181818;stroke-width:1;"/><line x1="3912.856" y1="299.07" x2="3869.565" y2="299.07" style="stroke:#181818;stroke-width:1;"/><line x1="3869.565" y1="299.07" x2="3869.565" y2="329.07" style="stroke:#181818;stroke-width:1;"/><polygon points="3869.565,329.07,3873.565,320.07,3869.565,324.07,3865.565,320.07,3869.565,329.07" fill="#181818" style="stroke:#181818;stroke-width:1;stroke-linejoin:miter;stroke-miterlimit:10;"/><text x="3826.514" y="284.004" fill="#000" font-size="13" textLength="82.342">derives from</text><line x1="2115.709" y1="59.938" x2="2115.709" y2="169.938" style="stroke:#181818;stroke-width:1;"/><line x1="2115.709" y1="169.938" x2="398.367" y2="169.938" style="stroke:#181818;stroke-width:1;"/><line x1="398.367" y1="169.938" x2="398.367" y2="299.07" style="stroke:#181818;stroke-width:1;"/><line x1="398.367" y1="299.07" x2="333.166" y2="299.07" style="stroke:#181818;stroke-width:1;"/><line x1="333.166" y1="299.07" x2="333.166" y2="329.07" style="stroke:#181818;stroke-width:1;"/><polygon points="333.166,329.07,337.166,320.07,333.166,324.07,329.166,320.07,333.166,329.07" fill="#181818" style="stroke:#181818;stroke-width:1;stroke-linejoin:miter;stroke-miterlimit:10;"/><text x="312.025" y="284.004" fill="#000" font-size="13" textLength="82.342">derives from</text><line x1="1386.009" y1="59.938" x2="1386.009" y2="89.938" style="stroke:#181818;stroke-width:1;"/><line x1="1386.009" y1="89.938" x2="515.143" y2="89.938" style="stroke:#181818;stroke-width:1;"/><line x1="515.143" y1="89.938" x2="515.143" y2="329.07" style="stroke:#181818;stroke-width:1;"/><polygon points="515.143,329.07,519.143,320.07,515.143,324.07,511.143,320.07,515.143,329.07" fill="#181818" style="stroke:#181818;stroke-width:1;stroke-linejoin:miter;stroke-miterlimit:10;"/><text x="428.801" y="284.004" fill="#000" font-size="13" textLength="82.342">derives from</text><line x1="1410.345" y1="59.938" x2="1410.345" y2="149.938" style="stroke:#181818;stroke-width:1;"/><line x1="1410.345" y1="149.938" x2="964.29" y2="149.938" style="stroke:#181818;stroke-width:1;"/><line x1="964.29" y1="149.938" x2="964.29" y2="329.07" style="stroke:#181818;stroke-width:1;"/><polygon points="964.29,329.07,968.29,320.07,964.29,324.07,960.29,320.07,964.29,329.07" fill="#181818" style="stroke:#181818;stroke-width:1;stroke-linejoin:miter;stroke-miterlimit:10;"/><text x="877.948" y="284.004" fill="#000" font-size="13" textLength="82.342">derives from</text><line x1="1434.68" y1="59.938" x2="1434.68" y2="329.07" style="stroke:#181818;stroke-width:1;"/><polygon points="1434.68,329.07,1438.68,320.07,1434.68,324.07,1430.68,320.07,1434.68,329.07" fill="#181818" style="stroke:#181818;stroke-width:1;stroke-linejoin:miter;stroke-miterlimit:10;"/><text x="1348.339" y="284.004" fill="#000" font-size="13" textLength="82.342">derives from</text><line x1="1459.016" y1="59.938" x2="1459.016" y2="259.938" style="stroke:#181818;stroke-width:1;"/><line x1="1459.016" y1="259.938" x2="2294.668" y2="259.938" style="stroke:#181818;stroke-width:1;"/><line x1="2294.668" y1="259.938" x2="2294.668" y2="329.07" style="stroke:#181818;stroke-width:1;"/><polygon points="2294.668,329.07,2298.668,320.07,2294.668,324.07,2290.668,320.07,2294.668,329.07" fill="#181818" style="stroke:#181818;stroke-width:1;stroke-linejoin:miter;stroke-miterlimit:10;"/><text x="2208.326" y="284.004" fill="#000" font-size="13" textLength="82.342">derives from</text><line x1="1483.352" y1="59.938" x2="1483.352" y2="239.938" style="stroke:#181818;stroke-width:1;"/><line x1="1483.352" y1="239.938" x2="2763.463" y2="239.938" style="stroke:#181818;stroke-width:1;"/><line x1="2763.463" y1="239.938" x2="2763.463" y2="329.07" style="stroke:#181818;stroke-width:1;"/><polygon points="2763.463,329.07,2767.463,320.07,2763.463,324.07,2759.463,320.07,2763.463,329.07" fill="#181818" style="stroke:#181818;stroke-width:1;stroke-linejoin:miter;stroke-miterlimit:10;"/><text x="2677.121" y="284.004" fill="#000" font-size="13" textLength="82.342">derives from</text><line x1="1507.688" y1="59.938" x2="1507.688" y2="199.938" style="stroke:#181818;stroke-width:1;"/><line x1="1507.688" y1="199.938" x2="3200.034" y2="199.938" style="stroke:#181818;stroke-width:1;"/><line x1="3200.034" y1="199.938" x2="3200.034" y2="329.07" style="stroke:#181818;stroke-width:1;"/><polygon points="3200.034,329.07,3204.034,320.07,3200.034,324.07,3196.034,320.07,3200.034,329.07" fill="#181818" style="stroke:#181818;stroke-width:1;stroke-linejoin:miter;stroke-miterlimit:10;"/><text x="3113.692" y="284.004" fill="#000" font-size="13" textLength="82.342">derives from</text><line x1="1532.023" y1="59.938" x2="1532.023" y2="159.938" style="stroke:#181818;stroke-width:1;"/><line x1="1532.023" y1="159.938" x2="3614.83" y2="159.938" style="stroke:#181818;stroke-width:1;"/><line x1="3614.83" y1="159.938" x2="3614.83" y2="329.07" style="stroke:#181818;stroke-width:1;"/><polygon points="3614.83,329.07,3618.83,320.07,3614.83,324.07,3610.83,320.07,3614.83,329.07" fill="#181818" style="stroke:#181818;stroke-width:1;stroke-linejoin:miter;stroke-miterlimit:10;"/><text x="3528.489" y="284.004" fill="#000" font-size="13" textLength="82.342">derives from</text><line x1="1361.673" y1="59.938" x2="1361.673" y2="69.938" style="stroke:#181818;stroke-width:1;"/><line x1="1361.673" y1="69.938" x2="100.342" y2="69.938" style="stroke:#181818;stroke-width:1;"/><line x1="100.342" y1="69.938" x2="100.342" y2="329.07" style="stroke:#181818;stroke-width:1;"/><polygon points="100.342,329.07,104.342,320.07,100.342,324.07,96.342,320.07,100.342,329.07" fill="#181818" style="stroke:#181818;stroke-width:1;stroke-linejoin:miter;stroke-miterlimit:10;"/><text x="14" y="284.004" fill="#000" font-size="13" textLength="82.342">derives from</text><line x1="641.696" y1="377.008" x2="641.696" y2="426.141" style="stroke:#181818;stroke-width:1;"/><line x1="641.696" y1="426.141" x2="251.542" y2="426.141" style="stroke:#181818;stroke-width:1;"/><line x1="251.542" y1="426.141" x2="251.542" y2="496.141" style="stroke:#181818;stroke-width:1;"/><polygon points="251.542,496.141,255.542,487.141,251.542,491.141,247.542,487.141,251.542,496.141" fill="#181818" style="stroke:#181818;stroke-width:1;stroke-linejoin:miter;stroke-miterlimit:10;"/><text x="576.625" y="411.075" fill="#000" font-size="13" textLength="61.071">mitigates</text><line x1="1101.798" y1="377.008" x2="1101.798" y2="436.141" style="stroke:#181818;stroke-width:1;"/><line x1="1101.798" y1="436.141" x2="286.33" y2="436.141" style="stroke:#181818;stroke-width:1;"/><line x1="286.33" y1="436.141" x2="286.33" y2="496.141" style="stroke:#181818;stroke-width:1;"/><polygon points="286.33,496.141,290.33,487.141,286.33,491.141,282.33,487.141,286.33,496.141" fill="#181818" style="stroke:#181818;stroke-width:1;stroke-linejoin:miter;stroke-miterlimit:10;"/><text x="1036.727" y="411.075" fill="#000" font-size="13" textLength="61.071">mitigates</text><line x1="1560.233" y1="377.008" x2="1560.233" y2="446.141" style="stroke:#181818;stroke-width:1;"/><line x1="1560.233" y1="446.141" x2="321.117" y2="446.141" style="stroke:#181818;stroke-width:1;"/><line x1="321.117" y1="446.141" x2="321.117" y2="496.141" style="stroke:#181818;stroke-width:1;"/><polygon points="321.117,496.141,325.117,487.141,321.117,491.141,317.117,487.141,321.117,496.141" fill="#181818" style="stroke:#181818;stroke-width:1;stroke-linejoin:miter;stroke-miterlimit:10;"/><text x="1495.162" y="411.075" fill="#000" font-size="13" textLength="61.071">mitigates</text><line x1="2431.176" y1="377.008" x2="2431.176" y2="456.141" style="stroke:#181818;stroke-width:1;"/><line x1="2431.176" y1="456.141" x2="355.905" y2="456.141" style="stroke:#181818;stroke-width:1;"/><line x1="355.905" y1="456.141" x2="355.905" y2="496.141" style="stroke:#181818;stroke-width:1;"/><polygon points="355.905,496.141,359.905,487.141,355.905,491.141,351.905,487.141,355.905,496.141" fill="#181818" style="stroke:#181818;stroke-width:1;stroke-linejoin:miter;stroke-miterlimit:10;"/><text x="2366.105" y="411.075" fill="#000" font-size="13" textLength="61.071">mitigates</text><line x1="2890.625" y1="377.008" x2="2890.625" y2="466.141" style="stroke:#181818;stroke-width:1;"/><line x1="2890.625" y1="466.141" x2="390.693" y2="466.141" style="stroke:#181818;stroke-width:1;"/><line x1="390.693" y1="466.141" x2="390.693" y2="496.141" style="stroke:#181818;stroke-width:1;"/><polygon points="390.693,496.141,394.693,487.141,390.693,491.141,386.693,487.141,390.693,496.141" fill="#181818" style="stroke:#181818;stroke-width:1;stroke-linejoin:miter;stroke-miterlimit:10;"/><text x="2825.555" y="411.075" fill="#000" font-size="13" textLength="61.071">mitigates</text><line x1="3316.241" y1="377.008" x2="3316.241" y2="476.141" style="stroke:#181818;stroke-width:1;"/><line x1="3316.241" y1="476.141" x2="425.481" y2="476.141" style="stroke:#181818;stroke-width:1;"/><line x1="425.481" y1="476.141" x2="425.481" y2="496.141" style="stroke:#181818;stroke-width:1;"/><polygon points="425.481,496.141,429.481,487.141,425.481,491.141,421.481,487.141,425.481,496.141" fill="#181818" style="stroke:#181818;stroke-width:1;stroke-linejoin:miter;stroke-miterlimit:10;"/><text x="3251.17" y="411.075" fill="#000" font-size="13" textLength="61.071">mitigates</text><line x1="3742.198" y1="377.008" x2="3742.198" y2="486.141" style="stroke:#181818;stroke-width:1;"/><line x1="3742.198" y1="486.141" x2="460.269" y2="486.141" style="stroke:#181818;stroke-width:1;"/><line x1="460.269" y1="486.141" x2="460.269" y2="496.141" style="stroke:#181818;stroke-width:1;"/><polygon points="460.269,496.141,464.269,487.141,460.269,491.141,456.269,487.141,460.269,496.141" fill="#181818" style="stroke:#181818;stroke-width:1;stroke-linejoin:miter;stroke-miterlimit:10;"/><text x="3677.127" y="411.075" fill="#000" font-size="13" textLength="61.071">mitigates</text><line x1="216.754" y1="377.008" x2="216.754" y2="496.141" style="stroke:#181818;stroke-width:1;"/><polygon points="216.754,496.141,220.754,487.141,216.754,491.141,212.754,487.141,216.754,496.141" fill="#181818" style="stroke:#181818;stroke-width:1;stroke-linejoin:miter;stroke-miterlimit:10;"/><text x="151.683" y="411.075" fill="#000" font-size="13" textLength="61.071">mitigates</text></g></svg>